<mxfile host="app.diagrams.net" modified="2022-03-12T03:55:34.043Z" agent="5.0 (Windows NT 10.0; Win64; x64) AppleWebKit/537.36 (KHTML, like Gecko) Chrome/99.0.4844.51 Safari/537.36" etag="bhQNIioDMDLpt4iPwjfF" version="17.1.2" type="github">
  <diagram id="C5RBs43oDa-KdzZeNtuy" name="Page-1">
    <mxGraphModel dx="1483" dy="781" grid="1" gridSize="10" guides="1" tooltips="1" connect="1" arrows="1" fold="1" page="1" pageScale="1" pageWidth="827" pageHeight="1169" math="0" shadow="0">
      <root>
        <mxCell id="WIyWlLk6GJQsqaUBKTNV-0" />
        <mxCell id="WIyWlLk6GJQsqaUBKTNV-1" parent="WIyWlLk6GJQsqaUBKTNV-0" />
        <mxCell id="CS3lsfKDhdEos2T8vyWl-20" value="" style="edgeStyle=orthogonalEdgeStyle;rounded=0;orthogonalLoop=1;jettySize=auto;html=1;" edge="1" parent="WIyWlLk6GJQsqaUBKTNV-1" source="CS3lsfKDhdEos2T8vyWl-21" target="CS3lsfKDhdEos2T8vyWl-23">
          <mxGeometry relative="1" as="geometry" />
        </mxCell>
        <mxCell id="CS3lsfKDhdEos2T8vyWl-21" value="用户注册并初始化" style="whiteSpace=wrap;html=1;rounded=0;glass=0;strokeWidth=1;shadow=0;" vertex="1" parent="WIyWlLk6GJQsqaUBKTNV-1">
          <mxGeometry x="170" y="450" width="120" height="60" as="geometry" />
        </mxCell>
        <mxCell id="CS3lsfKDhdEos2T8vyWl-22" value="" style="edgeStyle=orthogonalEdgeStyle;rounded=0;orthogonalLoop=1;jettySize=auto;html=1;" edge="1" parent="WIyWlLk6GJQsqaUBKTNV-1" source="CS3lsfKDhdEos2T8vyWl-23" target="CS3lsfKDhdEos2T8vyWl-25">
          <mxGeometry relative="1" as="geometry" />
        </mxCell>
        <mxCell id="CS3lsfKDhdEos2T8vyWl-23" value="用户登录" style="whiteSpace=wrap;html=1;rounded=0;glass=0;strokeWidth=1;shadow=0;" vertex="1" parent="WIyWlLk6GJQsqaUBKTNV-1">
          <mxGeometry x="170" y="550" width="120" height="60" as="geometry" />
        </mxCell>
        <mxCell id="CS3lsfKDhdEos2T8vyWl-24" value="" style="edgeStyle=orthogonalEdgeStyle;rounded=0;orthogonalLoop=1;jettySize=auto;html=1;" edge="1" parent="WIyWlLk6GJQsqaUBKTNV-1" source="CS3lsfKDhdEos2T8vyWl-25" target="CS3lsfKDhdEos2T8vyWl-29">
          <mxGeometry relative="1" as="geometry" />
        </mxCell>
        <mxCell id="CS3lsfKDhdEos2T8vyWl-25" value="查看用户个人信息" style="whiteSpace=wrap;html=1;rounded=0;glass=0;strokeWidth=1;shadow=0;" vertex="1" parent="WIyWlLk6GJQsqaUBKTNV-1">
          <mxGeometry x="170" y="650" width="120" height="60" as="geometry" />
        </mxCell>
        <mxCell id="CS3lsfKDhdEos2T8vyWl-26" value="是" style="edgeStyle=orthogonalEdgeStyle;rounded=0;orthogonalLoop=1;jettySize=auto;html=1;" edge="1" parent="WIyWlLk6GJQsqaUBKTNV-1" source="CS3lsfKDhdEos2T8vyWl-29" target="CS3lsfKDhdEos2T8vyWl-31">
          <mxGeometry relative="1" as="geometry" />
        </mxCell>
        <mxCell id="CS3lsfKDhdEos2T8vyWl-27" style="edgeStyle=orthogonalEdgeStyle;rounded=0;orthogonalLoop=1;jettySize=auto;html=1;entryX=1;entryY=0.5;entryDx=0;entryDy=0;" edge="1" parent="WIyWlLk6GJQsqaUBKTNV-1" source="CS3lsfKDhdEos2T8vyWl-29" target="CS3lsfKDhdEos2T8vyWl-23">
          <mxGeometry relative="1" as="geometry">
            <Array as="points">
              <mxPoint x="340" y="790" />
              <mxPoint x="340" y="580" />
            </Array>
          </mxGeometry>
        </mxCell>
        <mxCell id="CS3lsfKDhdEos2T8vyWl-28" value="否" style="edgeLabel;html=1;align=center;verticalAlign=middle;resizable=0;points=[];" vertex="1" connectable="0" parent="CS3lsfKDhdEos2T8vyWl-27">
          <mxGeometry x="0.0085" y="-2" relative="1" as="geometry">
            <mxPoint as="offset" />
          </mxGeometry>
        </mxCell>
        <mxCell id="CS3lsfKDhdEos2T8vyWl-29" value="修改" style="rhombus;whiteSpace=wrap;html=1;rounded=0;glass=0;strokeWidth=1;shadow=0;" vertex="1" parent="WIyWlLk6GJQsqaUBKTNV-1">
          <mxGeometry x="170" y="750" width="120" height="80" as="geometry" />
        </mxCell>
        <mxCell id="CS3lsfKDhdEos2T8vyWl-30" value="" style="edgeStyle=orthogonalEdgeStyle;rounded=0;orthogonalLoop=1;jettySize=auto;html=1;" edge="1" parent="WIyWlLk6GJQsqaUBKTNV-1" source="CS3lsfKDhdEos2T8vyWl-31" target="CS3lsfKDhdEos2T8vyWl-32">
          <mxGeometry relative="1" as="geometry" />
        </mxCell>
        <mxCell id="CS3lsfKDhdEos2T8vyWl-31" value="更改信息并提交" style="whiteSpace=wrap;html=1;rounded=1;glass=0;strokeWidth=1;shadow=0;" vertex="1" parent="WIyWlLk6GJQsqaUBKTNV-1">
          <mxGeometry x="170" y="880" width="120" height="60" as="geometry" />
        </mxCell>
        <mxCell id="CS3lsfKDhdEos2T8vyWl-32" value="结束" style="ellipse;whiteSpace=wrap;html=1;rounded=1;glass=0;strokeWidth=1;shadow=0;" vertex="1" parent="WIyWlLk6GJQsqaUBKTNV-1">
          <mxGeometry x="170" y="980" width="120" height="60" as="geometry" />
        </mxCell>
        <mxCell id="CS3lsfKDhdEos2T8vyWl-54" value="" style="edgeStyle=orthogonalEdgeStyle;rounded=0;orthogonalLoop=1;jettySize=auto;html=1;" edge="1" parent="WIyWlLk6GJQsqaUBKTNV-1" source="CS3lsfKDhdEos2T8vyWl-53" target="CS3lsfKDhdEos2T8vyWl-21">
          <mxGeometry relative="1" as="geometry" />
        </mxCell>
        <mxCell id="CS3lsfKDhdEos2T8vyWl-53" value="开始" style="strokeWidth=2;html=1;shape=mxgraph.flowchart.start_1;whiteSpace=wrap;strokeColor=#666666;" vertex="1" parent="WIyWlLk6GJQsqaUBKTNV-1">
          <mxGeometry x="175" y="340" width="110" height="60" as="geometry" />
        </mxCell>
        <mxCell id="CS3lsfKDhdEos2T8vyWl-87" value="" style="edgeStyle=orthogonalEdgeStyle;rounded=0;orthogonalLoop=1;jettySize=auto;html=1;" edge="1" parent="WIyWlLk6GJQsqaUBKTNV-1" source="CS3lsfKDhdEos2T8vyWl-88" target="CS3lsfKDhdEos2T8vyWl-90">
          <mxGeometry relative="1" as="geometry" />
        </mxCell>
        <mxCell id="CS3lsfKDhdEos2T8vyWl-88" value="用户登录" style="whiteSpace=wrap;html=1;rounded=0;glass=0;strokeWidth=1;shadow=0;" vertex="1" parent="WIyWlLk6GJQsqaUBKTNV-1">
          <mxGeometry x="450" y="460" width="120" height="60" as="geometry" />
        </mxCell>
        <mxCell id="CS3lsfKDhdEos2T8vyWl-89" value="" style="edgeStyle=orthogonalEdgeStyle;rounded=0;orthogonalLoop=1;jettySize=auto;html=1;" edge="1" parent="WIyWlLk6GJQsqaUBKTNV-1" source="CS3lsfKDhdEos2T8vyWl-90" target="CS3lsfKDhdEos2T8vyWl-94">
          <mxGeometry relative="1" as="geometry" />
        </mxCell>
        <mxCell id="CS3lsfKDhdEos2T8vyWl-90" value="查看用户账号信息" style="whiteSpace=wrap;html=1;rounded=0;glass=0;strokeWidth=1;shadow=0;" vertex="1" parent="WIyWlLk6GJQsqaUBKTNV-1">
          <mxGeometry x="450" y="560" width="120" height="60" as="geometry" />
        </mxCell>
        <mxCell id="CS3lsfKDhdEos2T8vyWl-91" value="是" style="edgeStyle=orthogonalEdgeStyle;rounded=0;orthogonalLoop=1;jettySize=auto;html=1;" edge="1" parent="WIyWlLk6GJQsqaUBKTNV-1" source="CS3lsfKDhdEos2T8vyWl-94" target="CS3lsfKDhdEos2T8vyWl-96">
          <mxGeometry relative="1" as="geometry" />
        </mxCell>
        <mxCell id="CS3lsfKDhdEos2T8vyWl-92" style="edgeStyle=orthogonalEdgeStyle;rounded=0;orthogonalLoop=1;jettySize=auto;html=1;entryX=1;entryY=0.5;entryDx=0;entryDy=0;" edge="1" parent="WIyWlLk6GJQsqaUBKTNV-1" source="CS3lsfKDhdEos2T8vyWl-94" target="CS3lsfKDhdEos2T8vyWl-90">
          <mxGeometry relative="1" as="geometry">
            <Array as="points">
              <mxPoint x="600" y="699.9999999999998" />
              <mxPoint x="600" y="590" />
            </Array>
          </mxGeometry>
        </mxCell>
        <mxCell id="CS3lsfKDhdEos2T8vyWl-93" value="否" style="edgeLabel;html=1;align=center;verticalAlign=middle;resizable=0;points=[];" vertex="1" connectable="0" parent="CS3lsfKDhdEos2T8vyWl-92">
          <mxGeometry x="0.0085" y="-2" relative="1" as="geometry">
            <mxPoint x="18" as="offset" />
          </mxGeometry>
        </mxCell>
        <mxCell id="CS3lsfKDhdEos2T8vyWl-94" value="修改" style="rhombus;whiteSpace=wrap;html=1;rounded=0;glass=0;strokeWidth=1;shadow=0;" vertex="1" parent="WIyWlLk6GJQsqaUBKTNV-1">
          <mxGeometry x="450" y="660" width="120" height="80" as="geometry" />
        </mxCell>
        <mxCell id="CS3lsfKDhdEos2T8vyWl-95" value="" style="edgeStyle=orthogonalEdgeStyle;rounded=0;orthogonalLoop=1;jettySize=auto;html=1;" edge="1" parent="WIyWlLk6GJQsqaUBKTNV-1" source="CS3lsfKDhdEos2T8vyWl-96" target="CS3lsfKDhdEos2T8vyWl-97">
          <mxGeometry relative="1" as="geometry" />
        </mxCell>
        <mxCell id="CS3lsfKDhdEos2T8vyWl-96" value="更改信息并提交" style="whiteSpace=wrap;html=1;rounded=1;glass=0;strokeWidth=1;shadow=0;" vertex="1" parent="WIyWlLk6GJQsqaUBKTNV-1">
          <mxGeometry x="450" y="790" width="120" height="60" as="geometry" />
        </mxCell>
        <mxCell id="CS3lsfKDhdEos2T8vyWl-97" value="结束" style="ellipse;whiteSpace=wrap;html=1;rounded=1;glass=0;strokeWidth=1;shadow=0;" vertex="1" parent="WIyWlLk6GJQsqaUBKTNV-1">
          <mxGeometry x="450" y="890" width="120" height="60" as="geometry" />
        </mxCell>
        <mxCell id="CS3lsfKDhdEos2T8vyWl-100" value="" style="edgeStyle=orthogonalEdgeStyle;rounded=0;orthogonalLoop=1;jettySize=auto;html=1;" edge="1" parent="WIyWlLk6GJQsqaUBKTNV-1" source="CS3lsfKDhdEos2T8vyWl-99" target="CS3lsfKDhdEos2T8vyWl-88">
          <mxGeometry relative="1" as="geometry" />
        </mxCell>
        <mxCell id="CS3lsfKDhdEos2T8vyWl-99" value="开始" style="strokeWidth=2;html=1;shape=mxgraph.flowchart.start_1;whiteSpace=wrap;strokeColor=#666666;" vertex="1" parent="WIyWlLk6GJQsqaUBKTNV-1">
          <mxGeometry x="455" y="340" width="110" height="60" as="geometry" />
        </mxCell>
      </root>
    </mxGraphModel>
  </diagram>
</mxfile>
